<svg width="27" height="15" viewBox="0 0 27 15" fill="none" xmlns="http://www.w3.org/2000/svg">
<path d="M3.82244 14H0.421875L4.83878 0.909091H9.05114L13.468 14H10.0675L6.9929 4.20739H6.89062L3.82244 14ZM3.36861 8.84801H10.4766V11.2514H3.36861V8.84801ZM26.1451 5.65199H22.949C22.9064 5.32386 22.8191 5.0277 22.687 4.76349C22.5549 4.49929 22.3801 4.27344 22.1628 4.08594C21.9455 3.89844 21.6877 3.75568 21.3894 3.65767C21.0953 3.5554 20.7694 3.50426 20.4114 3.50426C19.7765 3.50426 19.2289 3.6598 18.7686 3.97088C18.3127 4.28196 17.9611 4.73153 17.714 5.3196C17.4711 5.90767 17.3496 6.61932 17.3496 7.45455C17.3496 8.32386 17.4732 9.05256 17.7203 9.64062C17.9718 10.2244 18.3233 10.6655 18.775 10.9638C19.231 11.2578 19.7701 11.4048 20.3922 11.4048C20.7417 11.4048 21.0591 11.3601 21.3446 11.2706C21.6344 11.1811 21.888 11.0511 22.1053 10.8807C22.3269 10.706 22.508 10.495 22.6486 10.2479C22.7935 9.99645 22.8936 9.71307 22.949 9.39773L26.1451 9.4169C26.0897 9.99645 25.9213 10.5675 25.6401 11.13C25.3631 11.6925 24.9817 12.206 24.4959 12.6705C24.0101 13.1307 23.4178 13.4972 22.7189 13.7699C22.0243 14.0426 21.2275 14.179 20.3283 14.179C19.1436 14.179 18.0826 13.919 17.1451 13.3991C16.2118 12.875 15.4746 12.1122 14.9334 11.1108C14.3922 10.1094 14.1216 8.89062 14.1216 7.45455C14.1216 6.0142 14.3965 4.79332 14.9462 3.7919C15.4959 2.79048 16.2395 2.02983 17.177 1.50994C18.1145 0.990056 19.165 0.730113 20.3283 0.730113C21.1209 0.730113 21.8539 0.840909 22.5272 1.0625C23.2005 1.27983 23.7928 1.59943 24.3042 2.02131C24.8155 2.43892 25.231 2.95241 25.5506 3.56179C25.8702 4.17116 26.0684 4.8679 26.1451 5.65199Z" fill="#FFAC09"/>
</svg>
